<?xml version="1.0" encoding="UTF-8" standalone="no"?>
<svg
   xmlns:dc="http://purl.org/dc/elements/1.1/"
   xmlns:cc="http://creativecommons.org/ns#"
   xmlns:rdf="http://www.w3.org/1999/02/22-rdf-syntax-ns#"
   xmlns:svg="http://www.w3.org/2000/svg"
   xmlns="http://www.w3.org/2000/svg"
   xmlns:xlink="http://www.w3.org/1999/xlink"
   xmlns:sodipodi="http://sodipodi.sourceforge.net/DTD/sodipodi-0.dtd"
   xmlns:inkscape="http://www.inkscape.org/namespaces/inkscape"
   sodipodi:docname="drawing-1.svg"
   id="svg4209"
   version="1.1"
   viewBox="0 0 12.7 12.7"
   height="48"
   width="48"
   inkscape:export-filename="C:\Users\cmedders\bitmap.png"
   inkscape:export-xdpi="96"
   inkscape:export-ydpi="96"
   inkscape:version="1.0.1 (3bc2e813f5, 2020-09-07)">
  <defs
     id="defs4203">
    <linearGradient
       inkscape:collect="always"
       id="linearGradient5344">
      <stop
         style="stop-color:#1c8d95;stop-opacity:1"
         offset="0"
         id="stop5340" />
      <stop
         style="stop-color:#eef4d7;stop-opacity:1"
         offset="1"
         id="stop5342" />
    </linearGradient>
    <linearGradient
       inkscape:collect="always"
       id="linearGradient5336">
      <stop
         style="stop-color:#0071fe;stop-opacity:1"
         offset="0"
         id="stop5332" />
      <stop
         style="stop-color:#febfff;stop-opacity:1"
         offset="1"
         id="stop5334" />
    </linearGradient>
    <linearGradient
       inkscape:collect="always"
       id="linearGradient5325">
      <stop
         style="stop-color:#98fe91;stop-opacity:1"
         offset="0"
         id="stop5321" />
      <stop
         style="stop-color:#fe8f00;stop-opacity:1"
         offset="1"
         id="stop5323" />
    </linearGradient>
    <linearGradient
       inkscape:collect="always"
       id="linearGradient5317">
      <stop
         style="stop-color:#7dc0ff;stop-opacity:1"
         offset="0"
         id="stop5313" />
      <stop
         style="stop-color:#39c491;stop-opacity:1"
         offset="1"
         id="stop5315" />
    </linearGradient>
    <linearGradient
       inkscape:collect="always"
       id="linearGradient5311">
      <stop
         style="stop-color:#f51493;stop-opacity:1"
         offset="0"
         id="stop5307" />
      <stop
         style="stop-color:#39c491;stop-opacity:1"
         offset="1"
         id="stop5309" />
    </linearGradient>
    <linearGradient
       inkscape:collect="always"
       id="linearGradient5305">
      <stop
         style="stop-color:#9a1396;stop-opacity:1"
         offset="0"
         id="stop5301" />
      <stop
         style="stop-color:#39c491;stop-opacity:1"
         offset="1"
         id="stop5303" />
    </linearGradient>
    <linearGradient
       inkscape:collect="always"
       id="linearGradient5299">
      <stop
         style="stop-color:#f2be8f;stop-opacity:1"
         offset="0"
         id="stop5295" />
      <stop
         style="stop-color:#9a1396;stop-opacity:1"
         offset="1"
         id="stop5297" />
    </linearGradient>
    <linearGradient
       inkscape:collect="always"
       id="linearGradient5074-0">
      <stop
         style="stop-color:#f2be8f;stop-opacity:1"
         offset="0"
         id="stop5070" />
      <stop
         style="stop-color:#39c491;stop-opacity:1"
         offset="1"
         id="stop5072" />
    </linearGradient>
    <linearGradient
       inkscape:collect="always"
       xlink:href="#linearGradient5305"
       id="linearGradient5076-7"
       x1="6.4705768"
       y1="14.468786"
       x2="37.474892"
       y2="10.301907"
       gradientUnits="userSpaceOnUse"
       gradientTransform="matrix(0.26421018,-0.014047,0.014047,0.26421018,5.4318598,-0.78287712)" />
    <linearGradient
       inkscape:collect="always"
       xlink:href="#linearGradient5299"
       id="linearGradient5076-7-1"
       x1="6.4705768"
       y1="14.468786"
       x2="32.103195"
       y2="15.984143"
       gradientUnits="userSpaceOnUse"
       gradientTransform="matrix(0.26421018,-0.014047,0.014047,0.26421018,-1.361825,-0.82318826)" />
    <linearGradient
       inkscape:collect="always"
       xlink:href="#linearGradient5344"
       id="linearGradient5076-7-0"
       x1="6.4705768"
       y1="14.468786"
       x2="17.650648"
       y2="11.438328"
       gradientUnits="userSpaceOnUse"
       gradientTransform="matrix(0.26421018,-0.014047,0.014047,0.26421018,-1.4425588,5.8388232)" />
    <linearGradient
       inkscape:collect="always"
       xlink:href="#linearGradient5311"
       id="linearGradient5076-7-8"
       x1="6.4705768"
       y1="14.468786"
       x2="37.474892"
       y2="10.301907"
       gradientUnits="userSpaceOnUse"
       gradientTransform="matrix(0.26421018,-0.014047,0.014047,0.26421018,1.9674965,2.6464954)" />
    <linearGradient
       inkscape:collect="always"
       xlink:href="#linearGradient5074-0"
       id="linearGradient5076-7-4"
       x1="6.4705768"
       y1="14.468786"
       x2="37.474892"
       y2="10.301907"
       gradientUnits="userSpaceOnUse"
       gradientTransform="matrix(0.26421018,-0.014047,0.014047,0.26421018,1.9778806,-0.93383536)" />
    <linearGradient
       inkscape:collect="always"
       xlink:href="#linearGradient5317"
       id="linearGradient5076-7-3"
       x1="6.4705768"
       y1="14.468786"
       x2="37.474892"
       y2="10.301907"
       gradientUnits="userSpaceOnUse"
       gradientTransform="matrix(0.26421018,-0.014047,0.014047,0.26421018,-1.5514316,2.5324798)" />
    <linearGradient
       inkscape:collect="always"
       xlink:href="#linearGradient5317"
       id="linearGradient5076-7-7"
       x1="6.4705768"
       y1="14.468786"
       x2="15.504073"
       y2="17.372974"
       gradientUnits="userSpaceOnUse"
       gradientTransform="matrix(0.26421018,-0.014047,0.014047,0.26421018,5.2425112,6.3532573)" />
    <linearGradient
       inkscape:collect="always"
       xlink:href="#linearGradient5325"
       id="linearGradient5319"
       gradientUnits="userSpaceOnUse"
       gradientTransform="matrix(0.26421018,-0.014047,0.014047,0.26421018,5.4179291,2.730697)"
       x1="6.4705768"
       y1="14.468786"
       x2="19.292145"
       y2="13.584903" />
    <linearGradient
       inkscape:collect="always"
       xlink:href="#linearGradient5336"
       id="linearGradient5338"
       gradientUnits="userSpaceOnUse"
       gradientTransform="matrix(0.26421018,-0.014047,0.014047,0.26421018,2.0447821,5.9879739)"
       x1="6.4705768"
       y1="14.468786"
       x2="19.039608"
       y2="14.342517" />
  </defs>
  <sodipodi:namedview
     id="base"
     pagecolor="#ffffff"
     bordercolor="#666666"
     borderopacity="1.0"
     inkscape:pageopacity="0.0"
     inkscape:pageshadow="2"
     inkscape:zoom="0.5"
     inkscape:cx="2.551581"
     inkscape:cy="36.05516"
     inkscape:document-units="px"
     inkscape:current-layer="layer1"
     inkscape:document-rotation="0"
     showgrid="false"
     units="px"
     inkscape:pagecheckerboard="true"
     inkscape:snap-global="false"
     inkscape:window-width="1920"
     inkscape:window-height="1001"
     inkscape:window-x="-9"
     inkscape:window-y="-9"
     inkscape:window-maximized="1" />
  <metadata
     id="metadata4206">
    <rdf:RDF>
      <cc:Work
         rdf:about="">
        <dc:format>image/svg+xml</dc:format>
        <dc:type
           rdf:resource="http://purl.org/dc/dcmitype/StillImage" />
        <dc:title></dc:title>
      </cc:Work>
    </rdf:RDF>
  </metadata>
  <g
     inkscape:label="Layer 1"
     inkscape:groupmode="layer"
     id="layer1">
    <g
       id="g10553">
      <path
         style="fill:url(#linearGradient5076-7);fill-opacity:1;stroke:#000000;stroke-width:0.0330729;stroke-miterlimit:4;stroke-dasharray:none;stroke-opacity:1"
         d="M 9.4277233,5.3038937 C 8.1855677,5.1121724 7.2612867,3.9354854 7.3513417,2.6604868 7.4258936,1.6049936 8.0816589,0.74158075 9.0542765,0.41832193 c 0.2213444,-0.0735662 0.3203266,-0.0871163 0.6790093,-0.0929564 0.3500502,-0.0057 0.4623232,0.006202 0.6749792,0.071548 1.135541,0.34893692 1.88932,1.46459047 1.781137,2.63622547 -0.05287,0.5725584 -0.266669,1.0695927 -0.640773,1.4896346 C 11.132056,4.990498 10.610377,5.2550432 10.000248,5.3079619 9.7852267,5.326614 9.5647596,5.3250466 9.4277233,5.3038937 Z M 10.329097,4.8859242 C 10.709771,4.7849124 11.071997,4.5587638 11.348665,4.249378 11.751436,3.7989767 11.933502,3.2755177 11.900005,2.6642196 11.865579,2.0355328 11.655722,1.5965707 11.187474,1.1736325 10.860995,0.87874418 10.561615,0.72316245 10.171917,0.64586588 9.9135348,0.59461639 9.3871955,0.6224906 9.1350343,0.70077921 8.5708708,0.87593427 8.0500011,1.3463314 7.8162295,1.8917921 7.0931614,3.5789259 8.5796732,5.3501338 10.329097,4.8859242 Z"
         id="path5068-1" />
      <path
         style="fill:url(#linearGradient5076-7-1);fill-opacity:1;stroke:#000000;stroke-width:0.0330729;stroke-miterlimit:4;stroke-dasharray:none;stroke-opacity:1"
         d="M 2.6340384,5.2635827 C 1.3918829,5.0718613 0.46760186,3.8951744 0.55765686,2.6201758 0.63220876,1.5646825 1.2879741,0.70126952 2.2605916,0.37801074 2.4819361,0.30444458 2.5809183,0.2908944 2.9396011,0.28505432 c 0.3500501,-0.0057 0.4623233,0.006202 0.6749795,0.071548 C 4.7501215,0.70553938 5.5039008,1.8211928 5.3957175,2.9928278 5.3428507,3.5653861 5.1290482,4.0624204 4.7549441,4.4824625 4.3383716,4.9501868 3.8166928,5.214732 3.2065638,5.2676508 2.9915418,5.2863028 2.7710747,5.2847354 2.6340384,5.2635827 Z M 3.5354122,4.8456131 C 3.9160862,4.7446012 4.2783126,4.5184527 4.5549802,4.209067 4.957751,3.7586656 5.1398178,3.2352066 5.1063201,2.6239085 5.0718939,1.9952218 4.862037,1.5562595 4.3937894,1.1333215 4.06731,0.83843308 3.7679308,0.68285131 3.3782324,0.60555464 3.1198501,0.55430515 2.5935107,0.58217937 2.3413495,0.66046798 1.777186,0.83562318 1.2563163,1.3060204 1.0225446,1.8514809 0.29947663,3.5386149 1.7859883,5.3098228 3.5354122,4.8456131 Z"
         id="path5068-1-2" />
      <path
         style="fill:url(#linearGradient5076-7-0);fill-opacity:1;stroke:#000000;stroke-width:0.0330729;stroke-miterlimit:4;stroke-dasharray:none;stroke-opacity:1"
         d="M 2.5533047,11.925594 C 1.3111492,11.733873 0.38686811,10.557185 0.47692313,9.2821871 0.55147503,8.2266938 1.2072403,7.363281 2.1798579,7.0400221 c 0.2213445,-0.073566 0.3203267,-0.087116 0.6790095,-0.092956 0.35005,-0.0057 0.4623232,0.0062 0.6749795,0.071548 1.1355409,0.348937 1.8893201,1.4645905 1.7811369,2.6362255 -0.052867,0.5725574 -0.2666693,1.0695924 -0.6407734,1.4896344 -0.4165726,0.467724 -0.9382514,0.732269 -1.5483803,0.785188 -0.2150225,0.01864 -0.4354913,0.01704 -0.5725255,-0.0041 z M 3.4546785,11.507625 C 3.8353525,11.406612 4.1975789,11.180464 4.4742465,10.871079 4.8770173,10.420677 5.059084,9.897218 5.0255863,9.2859199 4.9911602,8.6572331 4.7813032,8.2182708 4.3130556,7.7953327 3.9865762,7.5004444 3.687197,7.3448626 3.2974987,7.2675661 3.0391164,7.2163166 2.5127769,7.2441908 2.2606157,7.3224794 1.6964522,7.4976345 1.1755825,7.9680316 0.94181096,8.5134922 0.2187429,10.200626 1.7052546,11.971834 3.4546785,11.507625 Z"
         id="path5068-1-9" />
      <path
         style="fill:url(#linearGradient5319);fill-opacity:1;stroke:#000000;stroke-width:0.0330729;stroke-miterlimit:4;stroke-dasharray:none;stroke-opacity:1"
         d="M 9.4137916,8.8174678 C 8.1716361,8.6257457 7.2473551,7.4490592 7.3374101,6.174061 7.411962,5.1185673 8.0677273,4.2551544 9.0403448,3.9318952 9.2616893,3.85833 9.3606713,3.8447759 9.7193541,3.8389348 c 0.3500499,-0.0057 0.4623239,0.0062 0.6749799,0.071549 1.135541,0.3489371 1.88932,1.4645906 1.781137,2.6362255 -0.05287,0.5725583 -0.26667,1.0695923 -0.640774,1.4896342 C 11.118125,8.5040685 10.596446,8.768613 9.9863168,8.821532 9.7712943,8.840174 9.5508256,8.838577 9.4137913,8.817462 Z M 10.315165,8.3994974 C 10.695839,8.2984846 11.058066,8.0723377 11.334734,7.7629517 11.737504,7.31255 11.919571,6.7890917 11.886073,6.177793 11.851647,5.549106 11.64179,5.1101445 11.173543,4.6872057 10.847063,4.392318 10.547684,4.2367359 10.157986,4.1594394 9.8996037,4.1081949 9.3732641,4.1360681 9.1211027,4.214353 8.5569392,4.3895081 8.0360695,4.859905 7.8022979,5.4053655 7.0792299,7.0924993 8.5657415,8.8637078 10.315165,8.3994974 Z"
         id="path5068-1-94" />
      <path
         style="fill:url(#linearGradient5076-7-8);fill-opacity:1;stroke:#000000;stroke-width:0.0330729;stroke-miterlimit:4;stroke-dasharray:none;stroke-opacity:1"
         d="M 5.9633598,8.7332663 C 4.7212044,8.541545 3.7969234,7.364858 3.8869783,6.0898592 3.9615302,5.0343659 4.6172956,4.1709531 5.5899132,3.8476943 c 0.2213442,-0.073566 0.3203264,-0.087116 0.6790092,-0.092956 0.3500501,-0.0057 0.4623233,0.0062 0.6749795,0.071548 1.1355409,0.348937 1.8893202,1.4645904 1.781137,2.6362255 C 8.672172,7.0350698 8.4583696,7.532104 8.0842654,7.9521461 7.6676929,8.4198704 7.1460141,8.6844156 6.5358852,8.7373344 6.3208632,8.7559865 6.100396,8.7544191 5.9633598,8.7332663 Z M 6.8647335,8.3152967 C 7.2454076,8.2142849 7.607634,7.9881363 7.8843016,7.6787506 8.2870723,7.2283492 8.4691391,6.7048901 8.4356414,6.093592 8.4012152,5.4649052 8.1913583,5.0259429 7.7231107,4.6030048 7.3966313,4.3081166 7.0972521,4.1525348 6.7075537,4.0752383 6.4491715,4.0239888 5.922832,4.051863 5.670671,4.1301516 5.1065075,4.3053067 4.5856378,4.7757037 4.3518662,5.3211643 3.6287981,7.0082984 5.1153099,8.7795064 6.8647335,8.3152967 Z"
         id="path5068-1-1" />
      <path
         style="fill:url(#linearGradient5076-7-4);fill-opacity:1;stroke:#000000;stroke-width:0.0330729;stroke-miterlimit:4;stroke-dasharray:none;stroke-opacity:1"
         d="M 5.9737438,5.1529356 C 4.7315886,4.9612142 3.8073075,3.7845273 3.8973625,2.5095286 3.9719144,1.4540353 4.6276798,0.59062239 5.600297,0.26736365 c 0.2213445,-0.0735662 0.3203267,-0.0871163 0.6790095,-0.0929564 0.3500501,-0.0057 0.4623233,0.006202 0.6749795,0.071548 C 8.0898269,0.59489211 8.8436062,1.7105455 8.7354229,2.8821807 8.6825561,3.454739 8.4687536,3.9517733 8.0946495,4.3718154 7.678077,4.8395397 7.1563982,5.1040849 6.5462692,5.1570037 6.3312472,5.1756557 6.1107801,5.1740883 5.9737438,5.1529356 Z M 6.8751176,4.734966 C 7.2557916,4.6339541 7.618018,4.4078056 7.8946856,4.0984199 8.2974564,3.6480185 8.4795232,3.1245595 8.4460255,2.5132614 8.4115993,1.8845745 8.2017423,1.4456123 7.7334947,1.0226743 7.4070154,0.72778579 7.1076361,0.57220404 6.7179378,0.49490752 6.4595555,0.44365803 5.9332161,0.47153225 5.6810549,0.54982086 5.1168917,0.7249759 4.596022,1.1953731 4.3622503,1.7408336 3.6391823,3.4279678 5.125694,5.1991757 6.8751176,4.734966 Z"
         id="path5068-1-3" />
      <path
         style="fill:url(#linearGradient5076-7-3);fill-opacity:1;stroke:#000000;stroke-width:0.0330729;stroke-miterlimit:4;stroke-dasharray:none;stroke-opacity:1"
         d="M 2.4444309,8.6192506 C 1.2022754,8.4275296 0.2779944,7.2508431 0.36804937,5.9758438 0.44260125,4.9203502 1.0983666,4.0569377 2.0709841,3.7336788 c 0.2213445,-0.073566 0.3203267,-0.087116 0.6790095,-0.092956 0.3500501,-0.0057 0.4623233,0.0062 0.6749795,0.071548 C 4.560514,4.0612074 5.3142933,5.1768608 5.20611,6.3484957 5.1532432,6.921054 4.9394408,7.4180889 4.5653366,7.8381309 4.1487641,8.3058548 3.6270853,8.5704004 3.0169564,8.6233194 2.8019338,8.6419615 2.5814651,8.6403641 2.4444309,8.6192506 Z M 3.3458047,8.2012813 C 3.7264787,8.1002685 4.0887051,7.8741205 4.3653728,7.5647356 4.7681435,7.1143339 4.9502103,6.5908745 4.9167126,5.9795768 4.8822864,5.3508899 4.6724295,4.9119273 4.2041819,4.4889896 3.8777025,4.1941011 3.5783233,4.0385193 3.1886249,3.9612228 2.9302426,3.9099733 2.4039032,3.9378475 2.151742,4.0161361 1.5875785,4.1912912 1.0667087,4.6616879 0.83293722,5.2071494 0.10986915,6.8942832 1.5963808,8.6654907 3.3458047,8.2012813 Z"
         id="path5068-1-0" />
      <path
         style="fill:url(#linearGradient5338);fill-opacity:1;stroke:#000000;stroke-width:0.0330729;stroke-miterlimit:4;stroke-dasharray:none;stroke-opacity:1"
         d="M 6.0406455,12.074745 C 4.79849,11.883024 3.8742089,10.706336 3.9642639,9.4313378 4.0388158,8.3758445 4.6945812,7.5124316 5.6671987,7.1891728 c 0.2213445,-0.073566 0.3203267,-0.087116 0.6790095,-0.092956 0.3500501,-0.0057 0.4623233,0.0062 0.6749795,0.071548 1.1355409,0.3489365 1.8893203,1.46459 1.781137,2.6362251 C 8.7494579,10.376548 8.5356555,10.873583 8.1615513,11.293625 7.7449788,11.761349 7.2233,12.025894 6.6131709,12.078812 c -0.2150225,0.01864 -0.4354912,0.01705 -0.5725255,-0.0041 z m 0.9013737,-0.41797 C 7.3226934,11.555764 7.6849198,11.329615 7.9615873,11.020229 8.364358,10.569828 8.5464249,10.046369 8.5129273,9.4350706 8.4785011,8.8063838 8.268644,8.3674215 7.8003965,7.9444834 7.473917,7.6495951 7.1745379,7.4940133 6.7848395,7.4167168 6.5264572,7.3654673 6.0001178,7.3933415 5.7479566,7.4716301 5.1837931,7.6467852 4.6629234,8.1171823 4.4291518,8.6626429 3.7060837,10.349777 5.1925954,12.120985 6.9420192,11.656775 Z"
         id="path5068-1-944" />
      <path
         style="fill:url(#linearGradient5076-7-7);fill-opacity:1;stroke:#000000;stroke-width:0.0330729;stroke-miterlimit:4;stroke-dasharray:none;stroke-opacity:1"
         d="M 9.238374,12.440028 C 7.9962187,12.248307 7.0719376,11.07162 7.1619926,9.7966212 7.2365445,8.7411279 7.8923099,7.8777151 8.8649274,7.5544562 9.0862717,7.48089 9.1852539,7.4673399 9.5439367,7.4614998 c 0.3500501,-0.0057 0.4623233,0.0062 0.6749793,0.071548 1.135541,0.348937 1.88932,1.4645905 1.781137,2.6362252 -0.05287,0.572558 -0.266669,1.069592 -0.640773,1.489635 -0.416573,0.467724 -0.938252,0.73227 -1.5483806,0.785188 -0.2150225,0.01864 -0.4354912,0.01704 -0.5725255,-0.0041 z m 0.901374,-0.417969 c 0.380674,-0.101013 0.7429,-0.327161 1.019568,-0.636547 0.40277,-0.450401 0.584837,-0.97386 0.55134,-1.5851576 C 11.676229,9.1716672 11.466372,8.732705 10.998125,8.3097668 10.671645,8.0148785 10.372266,7.8592967 9.982568,7.7820002 9.7241857,7.7307507 9.1978463,7.7586249 8.9456853,7.8369135 8.3815218,8.0120686 7.8606521,8.4824657 7.6268805,9.0279264 6.9038124,10.715061 8.3903241,12.486268 10.139748,12.022059 Z"
         id="path5068-1-08" />
    </g>
  </g>
</svg>
